<svg xmlns="http://www.w3.org/2000/svg" viewBox="0 0 28.6 20.47"><defs><style>.cls-1{fill:none;stroke:#330e37;stroke-miterlimit:10;stroke-width:0.25px;}</style></defs><title>Ativo 7</title><g id="Camada_2" data-name="Camada 2"><g id="Camada_1-2" data-name="Camada 1"><path class="cls-1" d="M27.24.12H5.45A1.24,1.24,0,0,0,4.22,1.35v.82H23.14A1.24,1.24,0,0,1,24.37,3.4v.82h.82a1.24,1.24,0,0,1,1.23,1.23V16.24h.82A1.23,1.23,0,0,0,28.47,15V1.35A1.24,1.24,0,0,0,27.24.12Z"/><path class="cls-1" d="M3.4,4.22h.82v-2H1.35A1.24,1.24,0,0,0,.12,3.4V17.06a1.24,1.24,0,0,0,1.23,1.23h.82V5.45A1.24,1.24,0,0,1,3.4,4.22Z"/><path class="cls-1" d="M24.37,4.22V3.4a1.24,1.24,0,0,0-1.23-1.23H4.22V4.22Z"/><path class="cls-1" d="M24.37,4.22V3.4a1.24,1.24,0,0,0-1.23-1.23H4.22V4.22Z"/><path class="cls-1" d="M24.37,17.06a1.23,1.23,0,0,1-1.23,1.23h-21v.82A1.24,1.24,0,0,0,3.4,20.34H25.19a1.23,1.23,0,0,0,1.23-1.23V16.24H24.37Z"/><path class="cls-1" d="M25.19,4.22h-.82v12h2.05V5.45A1.24,1.24,0,0,0,25.19,4.22Z"/><path class="cls-1" d="M25.19,4.22h-.82v12h2.05V5.45A1.24,1.24,0,0,0,25.19,4.22Z"/><path class="cls-1" d="M24.37,17.06v-.82H5.45A1.23,1.23,0,0,1,4.22,15V4.22H3.4A1.24,1.24,0,0,0,2.17,5.45V18.29h21A1.23,1.23,0,0,0,24.37,17.06Z"/><path class="cls-1" d="M24.37,17.06v-.82H5.45A1.23,1.23,0,0,1,4.22,15V4.22H3.4A1.24,1.24,0,0,0,2.17,5.45V18.29h21A1.23,1.23,0,0,0,24.37,17.06Z"/><path class="cls-1" d="M4.22,15a1.23,1.23,0,0,0,1.23,1.22H24.37v-12H4.22Z"/><path class="cls-1" d="M4.22,15a1.23,1.23,0,0,0,1.23,1.22H24.37v-12H4.22Z"/><path class="cls-1" d="M4.22,15a1.23,1.23,0,0,0,1.23,1.22H24.37v-12H4.22Z"/></g></g></svg>