<svg xmlns="http://www.w3.org/2000/svg" viewBox="0 0 215.04 153.67"><defs><style>.cls-1{isolation:isolate;}.cls-10,.cls-2,.cls-3,.cls-4,.cls-5,.cls-6,.cls-7,.cls-8,.cls-9{fill:#fff;stroke-miterlimit:10;}.cls-2,.cls-4{stroke:#cf6f3a;}.cls-3,.cls-8{stroke:#bf2d5b;}.cls-4,.cls-8{mix-blend-mode:multiply;}.cls-5{stroke:#962623;}.cls-6{stroke:#61468f;}.cls-7{stroke:#7c1a38;}.cls-9{stroke:#621a52;}.cls-10{stroke:#330e37;}.cls-11{font-size:44.47px;fill:#330e37;font-family:Poppins-Regular, Poppins;letter-spacing:0.02em;}</style></defs><title>Ativo 4</title><g class="cls-1"><g id="Camada_2" data-name="Camada 2"><g id="Camada_1-2" data-name="Camada 1"><path class="cls-2" d="M205.26.5H40.73a9.31,9.31,0,0,0-9.28,9.28V16H174.31a9.32,9.32,0,0,1,9.29,9.29v6.19h6.19a9.31,9.31,0,0,1,9.28,9.28v81.49h6.19a9.31,9.31,0,0,0,9.28-9.28V9.78A9.31,9.31,0,0,0,205.26.5Z"/><path class="cls-3" d="M25.26,31.45h6.19V16H9.78A9.31,9.31,0,0,0,.5,25.26V128.41a9.31,9.31,0,0,0,9.28,9.28H16v-97A9.31,9.31,0,0,1,25.26,31.45Z"/><path class="cls-4" d="M183.6,31.45V25.26A9.32,9.32,0,0,0,174.31,16H31.45V31.45Z"/><path class="cls-5" d="M183.6,31.45V25.26A9.32,9.32,0,0,0,174.31,16H31.45V31.45Z"/><path class="cls-6" d="M183.6,128.41a9.31,9.31,0,0,1-9.29,9.28H16v6.19a9.32,9.32,0,0,0,9.29,9.29H189.79a9.31,9.31,0,0,0,9.28-9.29V122.22H183.6Z"/><path class="cls-4" d="M189.79,31.45H183.6v90.77h15.47V40.73A9.31,9.31,0,0,0,189.79,31.45Z"/><path class="cls-7" d="M189.79,31.45H183.6v90.77h15.47V40.73A9.31,9.31,0,0,0,189.79,31.45Z"/><path class="cls-8" d="M183.6,128.41v-6.19H40.73a9.31,9.31,0,0,1-9.28-9.28V31.45H25.26A9.31,9.31,0,0,0,16,40.73v97H174.31A9.31,9.31,0,0,0,183.6,128.41Z"/><path class="cls-9" d="M183.6,128.41v-6.19H40.73a9.31,9.31,0,0,1-9.28-9.28V31.45H25.26A9.31,9.31,0,0,0,16,40.73v97H174.31A9.31,9.31,0,0,0,183.6,128.41Z"/><path class="cls-4" d="M31.45,112.94a9.31,9.31,0,0,0,9.28,9.28H183.6V31.45H31.45Z"/><path class="cls-8" d="M31.45,112.94a9.31,9.31,0,0,0,9.28,9.28H183.6V31.45H31.45Z"/><path class="cls-10" d="M31.45,112.94a9.31,9.31,0,0,0,9.28,9.28H183.6V31.45H31.45Z"/><text class="cls-11" transform="translate(49.94 93.02)">KRDS</text></g></g></g></svg>